# Blender v2.92.0 OBJ File: ''
# www.blender.org
o Gem2_Gem2.001
v 0.800000 1.000000 0.800000
v 0.800000 0.490799 0.800000
v 0.412105 1.194744 0.412105
v -0.800000 1.000000 0.800000
v -0.800000 0.490799 0.800000
v -0.412105 1.194744 0.412105
v 0.000000 0.490799 1.000000
v 0.000000 1.000000 1.000000
v 0.000000 1.194744 0.512105
v 0.800000 1.000000 -0.800000
v 0.800000 0.490799 -0.800000
v 0.412105 1.194744 -0.412105
v 1.000000 0.490799 0.000000
v 1.000000 1.000000 0.000000
v 0.512105 1.194744 0.000000
v -0.800000 1.000000 -0.800000
v -0.800000 0.490799 -0.800000
v -0.412105 1.194744 -0.412105
v 0.000000 -1.000000 0.000000
v -1.000000 0.490799 0.000000
v -1.000000 1.000000 0.000000
v -0.512105 1.194744 0.000000
v 0.000000 0.490799 -1.000000
v 0.000000 1.000000 -1.000000
v 0.000000 1.194744 -0.512105
v 0.000000 1.194744 0.000000
vn 0.0000 1.0000 0.0000
vn 0.2033 -0.5454 0.8131
vn 0.9701 0.0000 -0.2425
vn -0.0917 0.9243 -0.3705
vn -0.9701 0.0000 0.2425
vn 0.8131 -0.5454 0.2033
vn -0.3705 0.9243 -0.0917
vn -0.2033 -0.5454 0.8131
vn 0.9701 0.0000 0.2425
vn -0.0917 0.9243 0.3705
vn 0.2425 0.0000 -0.9701
vn -0.8131 -0.5454 0.2033
vn -0.3705 0.9243 0.0917
vn 0.2033 -0.5454 -0.8131
vn -0.9701 0.0000 -0.2425
vn 0.0917 0.9243 -0.3705
vn -0.2425 0.0000 0.9701
vn 0.8131 -0.5454 -0.2033
vn 0.0917 0.9243 0.3705
vn -0.2033 -0.5454 -0.8131
vn 0.2425 0.0000 0.9701
vn 0.3705 0.9243 0.0917
vn 0.3705 0.9243 -0.0917
vn -0.8131 -0.5454 -0.2033
vn -0.2425 0.0000 -0.9701
s off
f 12//1 25//1 26//1 15//1
f 2//2 7//2 19//2
f 11//3 10//3 14//3 13//3
f 18//1 22//1 26//1 25//1
f 18//4 25//4 24//4 16//4
f 5//5 4//5 21//5 20//5
f 13//6 2//6 19//6
f 21//7 22//7 18//7 16//7
f 5//8 19//8 7//8
f 2//9 13//9 14//9 1//9
f 6//10 4//10 8//10 9//10
f 23//11 24//11 10//11 11//11
f 20//12 19//12 5//12
f 21//13 4//13 6//13 22//13
f 11//14 19//14 23//14
f 17//15 20//15 21//15 16//15
f 3//1 15//1 26//1 9//1
f 12//16 10//16 24//16 25//16
f 7//17 8//17 4//17 5//17
f 13//18 19//18 11//18
f 3//19 9//19 8//19 1//19
f 17//20 23//20 19//20
f 7//21 2//21 1//21 8//21
f 6//1 9//1 26//1 22//1
f 14//22 15//22 3//22 1//22
f 14//23 10//23 12//23 15//23
f 20//24 17//24 19//24
f 23//25 17//25 16//25 24//25
