# Blender v2.92.0 OBJ File: ''
# www.blender.org
o Gem3_Gem3.001
v -0.794694 0.298483 -0.794694
v -0.479453 0.600000 -0.588278
v 0.794694 0.298483 -0.794694
v 0.000000 0.298483 -1.309156
v 0.479453 0.600000 -0.588278
v 0.000000 0.600000 -0.877723
v -0.794694 0.298483 0.794694
v -0.479453 0.600000 0.588278
v -1.000000 0.298483 0.000000
v -0.672668 0.600000 0.000000
v 0.794694 0.298483 0.794694
v 0.000000 0.298483 1.309156
v 0.479453 0.600000 0.588278
v 0.000000 0.600000 0.877723
v 1.000000 0.298483 0.000000
v 0.672668 0.600000 0.000000
v 0.000000 0.600000 0.000000
v -0.794694 -0.298483 -0.794694
v -0.479453 -0.600000 -0.588278
v 0.794694 -0.298483 -0.794694
v 0.000000 -0.298483 -1.309156
v 0.479453 -0.600000 -0.588278
v 0.000000 -0.600000 -0.877723
v -0.794694 -0.298483 0.794694
v -0.479453 -0.600000 0.588278
v -1.000000 -0.298483 0.000000
v -0.672668 -0.600000 0.000000
v 0.794694 -0.298483 0.794694
v 0.000000 -0.298483 1.309156
v 0.479453 -0.600000 0.588278
v 0.000000 -0.600000 0.877723
v 1.000000 -0.298483 0.000000
v 0.672668 -0.600000 0.000000
v 0.000000 -0.600000 0.000000
vn 0.0000 1.0000 -0.0000
vn -0.6404 0.7455 0.1845
vn -0.3461 0.7611 -0.5485
vn -0.3461 0.7611 0.5485
vn -0.5434 0.0000 -0.8395
vn 0.5434 0.0000 0.8395
vn 0.3461 0.7611 0.5485
vn -0.9682 0.0000 -0.2501
vn 0.0000 -1.0000 -0.0000
vn 0.6404 0.7455 -0.1845
vn -0.6404 0.7455 -0.1845
vn 0.9682 0.0000 0.2501
vn 0.5434 0.0000 -0.8395
vn 0.3461 0.7611 -0.5485
vn 0.6404 0.7455 0.1845
vn 0.6404 -0.7455 -0.1845
vn 0.9682 0.0000 -0.2501
vn -0.5434 0.0000 0.8395
vn 0.6404 -0.7455 0.1845
vn 0.3461 -0.7611 -0.5485
vn 0.3461 -0.7611 0.5485
vn -0.6404 -0.7455 -0.1845
vn -0.3461 -0.7611 0.5485
vn -0.6404 -0.7455 0.1845
vn -0.3461 -0.7611 -0.5485
vn -0.9682 0.0000 0.2501
s off
f 16//1 5//1 6//1 17//1
f 7//2 8//2 10//2 9//2
f 4//3 1//3 2//3 6//3
f 8//4 7//4 12//4 14//4
f 4//5 21//5 18//5 1//5
f 29//6 28//6 11//6 12//6
f 14//1 13//1 16//1 17//1
f 14//1 17//1 10//1 8//1
f 13//7 14//7 12//7 11//7
f 18//8 26//8 9//8 1//8
f 23//9 22//9 33//9 34//9
f 16//10 15//10 3//10 5//10
f 10//11 2//11 1//11 9//11
f 11//12 28//12 32//12 15//12
f 4//13 3//13 20//13 21//13
f 10//1 17//1 6//1 2//1
f 4//14 6//14 5//14 3//14
f 11//15 15//15 16//15 13//15
f 33//9 30//9 31//9 34//9
f 20//16 32//16 33//16 22//16
f 15//17 32//17 20//17 3//17
f 12//18 7//18 24//18 29//18
f 33//19 32//19 28//19 30//19
f 23//9 34//9 27//9 19//9
f 22//20 23//20 21//20 20//20
f 29//21 31//21 30//21 28//21
f 18//22 19//22 27//22 26//22
f 29//23 24//23 25//23 31//23
f 27//24 25//24 24//24 26//24
f 27//9 34//9 31//9 25//9
f 19//25 18//25 21//25 23//25
f 24//26 7//26 9//26 26//26
