# Blender v2.92.0 OBJ File: ''
# www.blender.org
o Gem5.002_Gem5.006
v 0.800000 0.400000 0.800000
v 0.412105 0.594744 0.412105
v -0.800000 0.400000 0.800000
v -0.412105 0.594744 0.412105
v 0.000000 0.400000 1.000000
v 0.000000 0.594744 0.512105
v 0.800000 0.400000 -0.800000
v 0.412105 0.594744 -0.412105
v 1.000000 0.400000 0.000000
v 0.512105 0.594744 0.000000
v -0.800000 0.400000 -0.800000
v -0.412105 0.594744 -0.412105
v -1.000000 0.400000 0.000000
v -0.512105 0.594744 0.000000
v 0.000000 0.400000 -1.000000
v 0.000000 0.594744 -0.512105
v 0.000000 0.594744 0.000000
v 0.800000 -0.400000 0.800000
v 0.412105 -0.594744 0.412105
v -0.800000 -0.400000 0.800000
v -0.412105 -0.594744 0.412105
v 0.000000 -0.400000 1.000000
v 0.000000 -0.594744 0.512105
v 0.800000 -0.400000 -0.800000
v 0.412105 -0.594744 -0.412105
v 1.000000 -0.400000 0.000000
v 0.512105 -0.594744 0.000000
v -0.800000 -0.400000 -0.800000
v -0.412105 -0.594744 -0.412105
v -1.000000 -0.400000 0.000000
v -0.512105 -0.594744 0.000000
v 0.000000 -0.400000 -1.000000
v 0.000000 -0.594744 -0.512105
v 0.000000 -0.594744 0.000000
vn -0.0917 -0.9243 -0.3705
vn 0.9701 0.0000 -0.2425
vn 0.0917 0.9243 0.3705
vn -0.2425 0.0000 -0.9701
vn -0.0917 0.9243 -0.3705
vn -0.9701 0.0000 0.2425
vn 0.0000 1.0000 0.0000
vn 0.3705 0.9243 -0.0917
vn -0.2425 0.0000 0.9701
vn 0.2425 0.0000 -0.9701
vn -0.3705 0.9243 0.0917
vn 0.0917 0.9243 -0.3705
vn -0.0917 0.9243 0.3705
vn -0.3705 0.9243 -0.0917
vn 0.3705 0.9243 0.0917
vn 0.3705 -0.9243 0.0917
vn 0.0000 -1.0000 0.0000
vn 0.0917 -0.9243 -0.3705
vn -0.3705 -0.9243 0.0917
vn 0.3705 -0.9243 -0.0917
vn -0.0917 -0.9243 0.3705
vn 0.9701 0.0000 0.2425
vn -0.3705 -0.9243 -0.0917
vn 0.0917 -0.9243 0.3705
vn 0.2425 0.0000 0.9701
vn -0.9701 0.0000 -0.2425
s off
f 32//1 33//1 29//1 28//1
f 7//2 9//2 26//2 24//2
f 2//3 6//3 5//3 1//3
f 28//4 11//4 15//4 32//4
f 12//5 16//5 15//5 11//5
f 30//6 20//6 3//6 13//6
f 12//7 14//7 17//7 16//7
f 9//8 7//8 8//8 10//8
f 20//9 22//9 5//9 3//9
f 15//10 7//10 24//10 32//10
f 13//11 3//11 4//11 14//11
f 8//12 7//12 15//12 16//12
f 4//13 3//13 5//13 6//13
f 13//14 14//14 12//14 11//14
f 2//7 10//7 17//7 6//7
f 9//15 10//15 2//15 1//15
f 4//7 6//7 17//7 14//7
f 19//16 27//16 26//16 18//16
f 34//17 33//17 25//17 27//17
f 32//18 24//18 25//18 33//18
f 21//19 20//19 30//19 31//19
f 34//17 27//17 19//17 23//17
f 25//20 24//20 26//20 27//20
f 22//21 20//21 21//21 23//21
f 26//22 9//22 1//22 18//22
f 8//7 16//7 17//7 10//7
f 29//23 31//23 30//23 28//23
f 34//17 23//17 21//17 31//17
f 22//24 23//24 19//24 18//24
f 1//25 5//25 22//25 18//25
f 30//26 13//26 11//26 28//26
f 34//17 31//17 29//17 33//17
